<?xml version="1.0" encoding="utf-8"?><!-- Uploaded to: SVG Repo, www.svgrepo.com, Generator: SVG Repo Mixer Tools -->
<svg fill="#000000" width="800px" height="800px" viewBox="-3.29 0 31.999 31.999" xmlns="http://www.w3.org/2000/svg">
  <path id="Path_13" data-name="Path 13" d="M373.953,139.56v-.936c0-.831-.9-1.525-1.64-2.045-.1-.077-.209-.146-.3-.213l-6.55-4.568h0c-2.231-1.557-2.231-2.635-2.231-4.159V121.9c0-1.1-.89-3.544-1.987-3.544s-1.985,2.447-1.985,3.544v5.739c0,1.524,0,2.6-2.232,4.159h0l-6.548,4.568c-.1.067-.2.136-.3.213-.739.52-1.639,1.214-1.639,2.045v.936c0,.1,0,.2,0,.294.01.274.1.46.58.294l10.144-3.479V143.6c0,1.577-.054,1.828-1.007,2.6l-.433.347,0,.005,0,0-1.52,1.213c-.029.023-.059.044-.085.066a.723.723,0,0,0-.316.675V149.8c0,.529,0,.664.422.476l4.93-2.182h0l4.934,2.182c.423.188.423.053.423-.476v-1.285a.721.721,0,0,0-.319-.675l-.083-.066-1.521-1.213,0,0-.005-.005-.434-.347c-.952-.777-1.006-1.028-1.006-2.6v-6.932l10.145,3.479c.486.166.569-.02.579-.294C373.958,139.76,373.953,139.661,373.953,139.56Z" transform="translate(-348.531 -118.356)"/>
</svg>